<svg xmlns="http://www.w3.org/2000/svg" xmlns:xlink="http://www.w3.org/1999/xlink" width="500" zoomAndPan="magnify" viewBox="0 0 375 374.999991" height="500" preserveAspectRatio="xMidYMid meet" version="1.0"><defs><g/><clipPath id="4ff0fba36d"><rect x="0" width="347" y="0" height="125"/></clipPath></defs><g transform="matrix(1, 0, 0, 1, 18, 125)"><g clip-path="url(#4ff0fba36d)"><g fill="#ffffff" fill-opacity="1"><g transform="translate(4.364803, 90.120372)"><g><path d="M 26.625 -40.546875 C 27.289062 -40.910156 27.914062 -40.960938 28.5 -40.703125 C 29.09375 -40.453125 29.535156 -40.289062 29.828125 -40.21875 C 30.117188 -40.144531 30.445312 -39.773438 30.8125 -39.109375 C 31.1875 -38.441406 31.445312 -37.925781 31.59375 -37.5625 C 31.738281 -37.195312 31.960938 -36.570312 32.265625 -35.6875 C 33.222656 -32 33.644531 -28.40625 33.53125 -24.90625 C 33.414062 -21.414062 33.101562 -18.640625 32.59375 -16.578125 C 32.226562 -14.878906 30.609375 -12.296875 27.734375 -8.828125 C 24.859375 -5.367188 22.132812 -2.867188 19.5625 -1.328125 L 19.5625 -1 C 19.5625 0.550781 19.960938 2.925781 20.765625 6.125 C 21.578125 9.332031 22.460938 11.859375 23.421875 13.703125 C 23.203125 13.410156 22.738281 12.875 22.03125 12.09375 C 21.332031 11.320312 20.835938 10.75 20.546875 10.375 C 20.253906 10.007812 19.921875 9.476562 19.546875 8.78125 C 19.179688 8.082031 18.960938 7.398438 18.890625 6.734375 C 18.816406 5.773438 18.890625 3.195312 19.109375 -1 C 17.929688 -0.476562 17.050781 -0.21875 16.46875 -0.21875 C 15.28125 -0.144531 13.765625 -1.429688 11.921875 -4.078125 C 10.085938 -6.734375 8.191406 -9.625 6.234375 -12.75 C 4.285156 -15.882812 2.722656 -17.820312 1.546875 -18.5625 C 1.328125 -18.632812 1.140625 -18.671875 0.984375 -18.671875 C 0.835938 -18.671875 0.726562 -18.632812 0.65625 -18.5625 L 0.546875 -18.453125 C 0.398438 -18.453125 0.253906 -18.523438 0.109375 -18.671875 C 3.640625 -23.304688 6.398438 -24.890625 8.390625 -23.421875 C 9.722656 -22.460938 11.03125 -21.117188 12.3125 -19.390625 C 13.601562 -17.660156 14.910156 -15.671875 16.234375 -13.421875 C 17.566406 -11.171875 18.523438 -9.644531 19.109375 -8.84375 L 19.109375 -9.171875 C 18.960938 -9.984375 18.960938 -11.160156 19.109375 -12.703125 L 19.109375 -18.34375 C 19.035156 -18.34375 19 -18.378906 19 -18.453125 L 18.78125 -18.5625 C 18.488281 -18.78125 18.117188 -19.035156 17.671875 -19.328125 L 15.6875 -22.3125 C 15.394531 -22.613281 15.453125 -22.925781 15.859375 -23.25 C 16.265625 -23.582031 16.832031 -24.082031 17.5625 -24.75 C 18.300781 -25.414062 18.816406 -26.148438 19.109375 -26.953125 L 19.109375 -34.578125 C 18.671875 -34.210938 18.117188 -33.71875 17.453125 -33.09375 C 16.796875 -32.46875 16.207031 -31.914062 15.6875 -31.4375 C 15.175781 -30.957031 14.601562 -30.441406 13.96875 -29.890625 C 13.34375 -29.335938 12.769531 -28.894531 12.25 -28.5625 C 11.738281 -28.226562 11.207031 -27.96875 10.65625 -27.78125 C 10.101562 -27.601562 9.585938 -27.550781 9.109375 -27.625 C 8.628906 -27.695312 8.207031 -27.953125 7.84375 -28.390625 C 6.375 -29.796875 5.25 -31.96875 4.46875 -34.90625 C 3.695312 -37.851562 3.421875 -40.671875 3.640625 -43.359375 C 3.867188 -46.046875 4.570312 -47.757812 5.75 -48.5 C 7.664062 -49.976562 9.613281 -51.34375 11.59375 -52.59375 C 11.519531 -52.144531 11.410156 -51.039062 11.265625 -49.28125 C 11.265625 -49.207031 11.242188 -48.894531 11.203125 -48.34375 C 11.171875 -47.789062 11.191406 -47.472656 11.265625 -47.390625 C 12.597656 -52.703125 15.210938 -55.6875 19.109375 -56.34375 L 19.109375 -60 C 18.890625 -63.164062 18.265625 -64.859375 17.234375 -65.078125 C 17.972656 -65.078125 18.5625 -64.945312 19 -64.6875 C 19.445312 -64.425781 19.707031 -64.019531 19.78125 -63.46875 C 19.851562 -62.914062 19.890625 -62.363281 19.890625 -61.8125 C 19.890625 -61.257812 19.832031 -60.484375 19.71875 -59.484375 C 19.613281 -58.492188 19.5625 -57.671875 19.5625 -57.015625 L 19.5625 -56.453125 C 21.101562 -56.671875 23.234375 -56.5625 25.953125 -56.125 C 28.679688 -55.6875 30.453125 -55.46875 31.265625 -55.46875 C 31.628906 -55.394531 32.347656 -55.539062 33.421875 -55.90625 C 34.492188 -56.269531 35.175781 -56.5625 35.46875 -56.78125 C 33.257812 -52.144531 30.71875 -49.203125 27.84375 -47.953125 C 26.8125 -47.578125 25.78125 -47.503906 24.75 -47.734375 C 21.4375 -48.460938 19.707031 -48.828125 19.5625 -48.828125 L 19.5625 -42.984375 C 19.5625 -42.753906 19.539062 -42.34375 19.5 -41.75 C 19.457031 -41.164062 19.4375 -40.765625 19.4375 -40.546875 L 19.4375 -35.6875 C 22.382812 -38.1875 24.78125 -39.804688 26.625 -40.546875 Z M 21.109375 -6.734375 C 22.941406 -5.265625 24.335938 -6.628906 25.296875 -10.828125 C 26.179688 -15.097656 26.40625 -20.21875 25.96875 -26.1875 C 25.300781 -33.257812 24.007812 -36.679688 22.09375 -36.453125 C 21.582031 -36.378906 20.695312 -35.863281 19.4375 -34.90625 C 19.4375 -34.101562 19.457031 -32.910156 19.5 -31.328125 C 19.539062 -29.742188 19.5625 -28.582031 19.5625 -27.84375 C 19.78125 -27.394531 19.890625 -27.0625 19.890625 -26.84375 C 20.109375 -26.40625 20.492188 -25.832031 21.046875 -25.125 C 21.597656 -24.425781 22.019531 -23.816406 22.3125 -23.296875 C 22.613281 -22.785156 22.765625 -22.3125 22.765625 -21.875 C 22.460938 -21.507812 21.960938 -21.101562 21.265625 -20.65625 C 20.566406 -20.21875 20.085938 -19.8125 19.828125 -19.4375 C 19.566406 -19.070312 19.550781 -18.5625 19.78125 -17.90625 C 19.707031 -17.90625 19.632812 -17.941406 19.5625 -18.015625 L 19.5625 -10.046875 C 19.632812 -9.609375 19.671875 -8.984375 19.671875 -8.171875 C 20.253906 -7.441406 20.734375 -6.960938 21.109375 -6.734375 Z M 15.46875 -32.484375 C 16.28125 -33.066406 17.492188 -34.023438 19.109375 -35.359375 L 19.109375 -48.828125 C 15.054688 -49.273438 12.476562 -48.023438 11.375 -45.078125 C 11.375 -41.617188 11.628906 -38.96875 12.140625 -37.125 C 12.660156 -35.28125 13.769531 -33.734375 15.46875 -32.484375 Z M 15.46875 -32.484375 "/></g></g></g><g fill="#ffffff" fill-opacity="1"><g transform="translate(37.730335, 90.120372)"><g><path d="M 22.765625 -46.953125 C 21.953125 -46.953125 20.363281 -47.097656 18 -47.390625 C 15.644531 -47.691406 13.75 -47.914062 12.3125 -48.0625 C 10.882812 -48.207031 9.65625 -48.132812 8.625 -47.84375 C 7.21875 -47.394531 6.1875 -46.328125 5.53125 -44.640625 C 4.269531 -41.171875 5.519531 -39.769531 9.28125 -40.4375 C 12.738281 -41.03125 18.742188 -43.679688 27.296875 -48.390625 C 28.691406 -49.128906 30.125 -49.789062 31.59375 -50.375 C 30.5625 -49.644531 29.914062 -48.503906 29.65625 -46.953125 C 29.40625 -45.410156 29.242188 -43.09375 29.171875 -40 C 29.171875 -39.476562 29.171875 -39.070312 29.171875 -38.78125 C 32.554688 -38.78125 35.535156 -38.925781 38.109375 -39.21875 C 38.484375 -39.21875 38.707031 -38.976562 38.78125 -38.5 C 38.851562 -38.019531 38.707031 -37.671875 38.34375 -37.453125 C 37.820312 -37.671875 36.160156 -37.78125 33.359375 -37.78125 C 30.566406 -37.78125 29.132812 -37.632812 29.0625 -37.34375 L 29.0625 -34.03125 C 29.0625 -33.289062 29.0625 -32.476562 29.0625 -31.59375 C 29.0625 -30.707031 29.0625 -29.726562 29.0625 -28.65625 C 29.0625 -27.59375 29.0625 -26.769531 29.0625 -26.1875 C 29.207031 -21.25 29.242188 -17.566406 29.171875 -15.140625 L 29.171875 -14.6875 C 29.171875 -14.46875 29.207031 -13.785156 29.28125 -12.640625 C 29.351562 -11.503906 29.425781 -10.640625 29.5 -10.046875 C 29.570312 -9.460938 29.773438 -8.726562 30.109375 -7.84375 C 30.441406 -6.957031 30.863281 -6.40625 31.375 -6.1875 C 31.894531 -5.96875 32.632812 -5.945312 33.59375 -6.125 C 34.550781 -6.3125 35.691406 -6.847656 37.015625 -7.734375 C 37.085938 -7.734375 37.160156 -7.734375 37.234375 -7.734375 C 37.378906 -7.734375 37.46875 -7.710938 37.5 -7.671875 C 37.539062 -7.640625 37.523438 -7.550781 37.453125 -7.40625 C 35.097656 -4.09375 32.519531 -1.734375 29.71875 -0.328125 C 27.945312 0.554688 26.140625 0.078125 24.296875 -1.765625 C 22.460938 -3.609375 21.507812 -5.671875 21.4375 -7.953125 C 20.769531 -7.066406 20.398438 -6.625 20.328125 -6.625 C 17.523438 -3.238281 15.171875 -1.210938 13.265625 -0.546875 C 11.929688 -0.179688 10.601562 -0.21875 9.28125 -0.65625 C 5.59375 -2.875 3.140625 -5.601562 1.921875 -8.84375 C 0.710938 -12.082031 0.53125 -15.226562 1.375 -18.28125 C 2.226562 -21.34375 3.351562 -24.234375 4.75 -26.953125 C 6.144531 -29.679688 7.414062 -31.890625 8.5625 -33.578125 C 9.707031 -35.273438 10.164062 -36.125 9.9375 -36.125 C 7.507812 -36.269531 5.097656 -35.644531 2.703125 -34.25 C 0.304688 -32.851562 -1.40625 -31.160156 -2.4375 -29.171875 C -2.800781 -28.429688 -3.203125 -28.429688 -3.640625 -29.171875 C -3.566406 -29.390625 -3.421875 -29.882812 -3.203125 -30.65625 C -2.984375 -31.425781 -2.816406 -31.957031 -2.703125 -32.25 C -2.597656 -32.550781 -2.414062 -33.03125 -2.15625 -33.6875 C -1.894531 -34.351562 -1.65625 -34.832031 -1.4375 -35.125 C -1.21875 -35.425781 -0.921875 -35.796875 -0.546875 -36.234375 C -0.179688 -36.679688 0.203125 -37.03125 0.609375 -37.28125 C 1.015625 -37.539062 1.472656 -37.742188 1.984375 -37.890625 C 2.503906 -38.265625 4.734375 -38.429688 8.671875 -38.390625 C 12.609375 -38.359375 14.875 -38.34375 15.46875 -38.34375 C 17.601562 -38.34375 19.40625 -38.414062 20.875 -38.5625 C 20.945312 -38.5625 21.019531 -38.613281 21.09375 -38.71875 C 21.175781 -38.832031 21.234375 -39.035156 21.265625 -39.328125 C 21.304688 -39.628906 21.328125 -39.90625 21.328125 -40.15625 C 21.328125 -40.414062 21.328125 -40.800781 21.328125 -41.3125 C 21.328125 -41.832031 21.328125 -42.3125 21.328125 -42.75 C 21.398438 -42.90625 22.171875 -43.71875 23.640625 -45.1875 C 23.128906 -44.96875 22.117188 -44.46875 20.609375 -43.6875 C 19.097656 -42.914062 17.710938 -42.234375 16.453125 -41.640625 C 15.203125 -41.054688 13.820312 -40.503906 12.3125 -39.984375 C 10.800781 -39.472656 9.421875 -39.21875 8.171875 -39.21875 C 6.921875 -39.21875 5.925781 -39.550781 5.1875 -40.21875 C 4.601562 -40.800781 4.273438 -41.738281 4.203125 -43.03125 C 4.128906 -44.320312 4.238281 -46.109375 4.53125 -48.390625 C 4.96875 -53.109375 6.804688 -55.6875 10.046875 -56.125 C 11.671875 -56.269531 13.71875 -56.117188 16.1875 -55.671875 C 18.65625 -55.234375 20.609375 -54.921875 22.046875 -54.734375 C 23.484375 -54.554688 25.234375 -54.800781 27.296875 -55.46875 C 29.203125 -56.34375 30.304688 -56.929688 30.609375 -57.234375 C 30.015625 -56.566406 29.332031 -55.367188 28.5625 -53.640625 C 27.789062 -51.910156 26.960938 -50.4375 26.078125 -49.21875 C 25.191406 -48 24.085938 -47.242188 22.765625 -46.953125 Z M 20.875 -10.609375 C 21.25 -20.546875 21.285156 -29.382812 20.984375 -37.125 C 20.546875 -37.488281 19.203125 -37.539062 16.953125 -37.28125 C 14.710938 -37.03125 13.296875 -36.644531 12.703125 -36.125 C 12.191406 -35.613281 11.675781 -34.328125 11.15625 -32.265625 C 10.125 -27.992188 9.609375 -23.941406 9.609375 -20.109375 C 9.460938 -17.898438 9.535156 -16.242188 9.828125 -15.140625 C 9.898438 -12.191406 10.632812 -10.050781 12.03125 -8.71875 C 13.4375 -7.394531 14.984375 -6.972656 16.671875 -7.453125 C 18.367188 -7.929688 19.769531 -8.984375 20.875 -10.609375 Z M 31.9375 -50.609375 C 31.851562 -50.609375 31.8125 -50.566406 31.8125 -50.484375 L 31.59375 -50.375 Z M 31.9375 -50.609375 "/></g></g></g><g fill="#ffffff" fill-opacity="1"><g transform="translate(75.294177, 90.120372)"><g><path d="M 30.5 -54.6875 C 30.644531 -55.050781 31.046875 -55.953125 31.703125 -57.390625 C 32.367188 -58.828125 32.773438 -59.804688 32.921875 -60.328125 C 32.921875 -60.179688 33.015625 -59.90625 33.203125 -59.5 C 33.390625 -59.09375 33.484375 -58.851562 33.484375 -58.78125 C 33.109375 -57.675781 32.40625 -56.054688 31.375 -53.921875 C 30.34375 -51.785156 29.3125 -49.703125 28.28125 -47.671875 C 27.25 -45.648438 26.234375 -43.40625 25.234375 -40.9375 C 24.242188 -38.46875 23.472656 -36.203125 22.921875 -34.140625 C 22.367188 -32.078125 22.128906 -30.050781 22.203125 -28.0625 C 22.273438 -26.070312 22.789062 -24.488281 23.75 -23.3125 C 22.570312 -23.75 21.28125 -24.757812 19.875 -26.34375 C 18.476562 -27.925781 17.929688 -29.234375 18.234375 -30.265625 C 18.085938 -33.140625 19.6875 -37.046875 23.03125 -41.984375 C 26.382812 -46.921875 28.394531 -50.269531 29.0625 -52.03125 C 27.363281 -49.09375 25.90625 -47.4375 24.6875 -47.0625 C 23.476562 -46.695312 21.253906 -47.140625 18.015625 -48.390625 C 16.242188 -49.492188 15.023438 -49.457031 14.359375 -48.28125 C 13.773438 -46.65625 13.367188 -45.441406 13.140625 -44.640625 L 11.828125 -39.65625 C 11.453125 -37.675781 11.242188 -34.125 11.203125 -29 C 11.171875 -23.882812 11.34375 -20.257812 11.71875 -18.125 C 12.15625 -15.25 13.238281 -12.832031 14.96875 -10.875 C 16.695312 -8.925781 18.609375 -7.726562 20.703125 -7.28125 C 22.804688 -6.84375 24.945312 -7.25 27.125 -8.5 C 29.300781 -9.757812 31.015625 -11.863281 32.265625 -14.8125 C 31.960938 -10.3125 30.429688 -6.53125 27.671875 -3.46875 C 24.910156 -0.414062 21.429688 0.484375 17.234375 -0.765625 C 13.179688 -1.140625 9.460938 -3.644531 6.078125 -8.28125 C 4.679688 -7.25 3.28125 -6.550781 1.875 -6.1875 L 1.4375 -6.734375 L 1.4375 -6.84375 C 3.28125 -7.289062 4.203125 -12.300781 4.203125 -21.875 L 4.203125 -26.1875 C 4.054688 -33.40625 3.867188 -40.878906 3.640625 -48.609375 C 3.492188 -51.335938 3.128906 -52.8125 2.546875 -53.03125 C 2.097656 -53.25 1.46875 -53.101562 0.65625 -52.59375 L 0.546875 -52.8125 C 0.472656 -52.882812 0.472656 -52.957031 0.546875 -53.03125 C 1.722656 -53.84375 2.9375 -54.488281 4.1875 -54.96875 C 5.445312 -55.445312 6.644531 -55.738281 7.78125 -55.84375 C 8.925781 -55.957031 9.828125 -55.703125 10.484375 -55.078125 C 11.148438 -54.453125 11.410156 -53.4375 11.265625 -52.03125 C 11.117188 -50.851562 11.117188 -48.128906 11.265625 -43.859375 C 11.335938 -43.046875 11.375 -42.640625 11.375 -42.640625 C 11.375 -42.640625 11.523438 -43.234375 11.828125 -44.421875 C 11.898438 -44.785156 12.082031 -45.554688 12.375 -46.734375 C 12.664062 -47.910156 12.882812 -48.738281 13.03125 -49.21875 C 13.1875 -49.695312 13.425781 -50.414062 13.75 -51.375 C 14.082031 -52.332031 14.414062 -53.066406 14.75 -53.578125 C 15.082031 -54.097656 15.503906 -54.6875 16.015625 -55.34375 C 16.535156 -56.007812 17.125 -56.566406 17.78125 -57.015625 C 19.625 -55.828125 21.945312 -54.9375 24.75 -54.34375 C 27.550781 -53.757812 29.46875 -53.875 30.5 -54.6875 Z M 30.5 -54.6875 "/></g></g></g><g fill="#ffffff" fill-opacity="1"><g transform="translate(107.333921, 90.120372)"><g><path d="M 9.390625 -44.296875 C 9.390625 -43.929688 9.40625 -43.453125 9.4375 -42.859375 C 9.476562 -42.273438 9.5 -41.800781 9.5 -41.4375 L 9.9375 -43.203125 C 10.3125 -44.671875 11.195312 -47.429688 12.59375 -51.484375 C 13.988281 -55.535156 14.945312 -57.742188 15.46875 -58.109375 C 15.539062 -58.109375 15.613281 -58.109375 15.6875 -58.109375 C 15.757812 -58.109375 15.757812 -58.070312 15.6875 -58 C 15.613281 -57.488281 15.613281 -57.195312 15.6875 -57.125 L 17.90625 -56.34375 C 20.039062 -55.601562 22.691406 -54.992188 25.859375 -54.515625 C 29.023438 -54.046875 31.859375 -54.210938 34.359375 -55.015625 C 34.722656 -55.242188 34.578125 -54.84375 33.921875 -53.8125 C 33.703125 -53.507812 33.441406 -53.140625 33.140625 -52.703125 C 32.921875 -52.335938 32.8125 -52.15625 32.8125 -52.15625 C 32.738281 -52 32.550781 -51.773438 32.25 -51.484375 C 31.957031 -51.191406 31.773438 -50.972656 31.703125 -50.828125 C 31.554688 -50.597656 31.335938 -50.335938 31.046875 -50.046875 L 31.046875 -49.9375 C 30.898438 -49.789062 30.398438 -49.289062 29.546875 -48.4375 C 28.703125 -47.59375 27.96875 -46.96875 27.34375 -46.5625 C 26.71875 -46.164062 26.109375 -45.96875 25.515625 -45.96875 L 25.1875 -45.96875 C 25.113281 -46.039062 24.96875 -46.078125 24.75 -46.078125 L 23.3125 -46.1875 C 22.71875 -46.332031 21.738281 -46.609375 20.375 -47.015625 C 19.019531 -47.421875 18.066406 -47.640625 17.515625 -47.671875 C 16.960938 -47.710938 16.019531 -47.660156 14.6875 -47.515625 L 13.703125 -47.171875 C 12.378906 -46.515625 11.050781 -43.347656 9.71875 -37.671875 C 9.570312 -36.941406 9.5 -36.460938 9.5 -36.234375 L 9.5 -34.25 C 9.425781 -32.550781 9.390625 -30.15625 9.390625 -27.0625 L 9.390625 -19.78125 C 9.390625 -19.632812 9.332031 -18.269531 9.21875 -15.6875 C 9.113281 -13.113281 9.207031 -11.789062 9.5 -11.71875 C 10.3125 -6.632812 12.300781 -5.488281 15.46875 -8.28125 L 15.6875 -8.0625 C 14.875 -6.519531 13.75 -4.828125 12.3125 -2.984375 C 10.882812 -1.140625 9.800781 -0.21875 9.0625 -0.21875 C 8.175781 -0.21875 7.421875 -0.304688 6.796875 -0.484375 C 6.171875 -0.671875 5.632812 -1.0625 5.1875 -1.65625 C 4.75 -2.25 4.4375 -2.691406 4.25 -2.984375 C 4.070312 -3.273438 3.757812 -3.898438 3.3125 -4.859375 C 2.945312 -5.890625 2.65625 -7.066406 2.4375 -8.390625 C 2.207031 -8.242188 1.726562 -7.804688 1 -7.078125 L 0.109375 -7.515625 C 1.429688 -9.429688 2.09375 -15.65625 2.09375 -26.1875 C 2.09375 -28.832031 2.070312 -31.679688 2.03125 -34.734375 C 2 -37.796875 1.960938 -40.410156 1.921875 -42.578125 C 1.890625 -44.753906 1.875 -45.957031 1.875 -46.1875 C 1.875 -46.257812 1.875 -46.367188 1.875 -46.515625 C 1.875 -47.023438 1.875 -47.425781 1.875 -47.71875 C 1.875 -48.019531 1.835938 -48.460938 1.765625 -49.046875 C 1.691406 -49.640625 1.582031 -50.082031 1.4375 -50.375 C 1.289062 -50.675781 1.101562 -50.953125 0.875 -51.203125 C 0.65625 -51.460938 0.347656 -51.535156 -0.046875 -51.421875 C -0.453125 -51.316406 -0.914062 -51.082031 -1.4375 -50.71875 C -1.21875 -52.332031 -0.00390625 -54.394531 2.203125 -56.90625 C 2.648438 -57.632812 3.882812 -57.5 5.90625 -56.5 C 7.9375 -55.507812 9.023438 -54.535156 9.171875 -53.578125 C 9.316406 -53.140625 9.390625 -50.046875 9.390625 -44.296875 Z M 9.390625 -44.296875 "/></g></g></g><g fill="#ffffff" fill-opacity="1"><g transform="translate(139.705032, 90.120372)"><g><path d="M 11.484375 -44.296875 L 11.484375 -19.78125 C 11.484375 -19.632812 11.425781 -18.269531 11.3125 -15.6875 C 11.207031 -13.113281 11.300781 -11.789062 11.59375 -11.71875 C 12.257812 -6.632812 14.25 -5.488281 17.5625 -8.28125 L 17.671875 -8.0625 C 16.941406 -6.59375 15.859375 -4.914062 14.421875 -3.03125 C 12.984375 -1.15625 11.894531 -0.21875 11.15625 -0.21875 C 10.269531 -0.21875 9.515625 -0.304688 8.890625 -0.484375 C 8.265625 -0.671875 7.726562 -1.0625 7.28125 -1.65625 C 6.84375 -2.25 6.53125 -2.691406 6.34375 -2.984375 C 6.164062 -3.273438 5.851562 -3.898438 5.40625 -4.859375 C 4.601562 -6.484375 4.203125 -9.648438 4.203125 -14.359375 C 4.203125 -15.691406 4.179688 -17.644531 4.140625 -20.21875 C 4.109375 -22.789062 4.09375 -24.78125 4.09375 -26.1875 C 3.9375 -35.019531 3.859375 -41.6875 3.859375 -46.1875 C 3.859375 -49.644531 3.34375 -51.410156 2.3125 -51.484375 C 1.875 -51.484375 1.320312 -51.226562 0.65625 -50.71875 C 0.8125 -52.1875 2.03125 -54.25 4.3125 -56.90625 C 4.53125 -57.34375 5.320312 -57.25 6.6875 -56.625 C 8.050781 -56 9.6875 -55.28125 11.59375 -54.46875 C 13.507812 -53.65625 15.097656 -53.359375 16.359375 -53.578125 C 16.578125 -53.578125 16.5 -53.320312 16.125 -52.8125 L 15.25 -52.265625 C 13.769531 -50.566406 12.789062 -49.253906 12.3125 -48.328125 C 11.832031 -47.410156 11.554688 -46.066406 11.484375 -44.296875 Z M 5.40625 -65.953125 C 4.300781 -67.359375 3.347656 -68.757812 2.546875 -70.15625 C 2.171875 -70.601562 2.332031 -71.101562 3.03125 -71.65625 C 3.738281 -72.207031 4.625 -73.035156 5.6875 -74.140625 C 6.757812 -75.242188 7.40625 -76.53125 7.625 -78 C 7.695312 -78.289062 7.878906 -78.179688 8.171875 -77.671875 L 8.390625 -76.453125 C 8.691406 -76.015625 9.265625 -75.28125 10.109375 -74.25 C 10.953125 -73.21875 11.578125 -72.332031 11.984375 -71.59375 C 12.390625 -70.851562 12.59375 -70.191406 12.59375 -69.609375 C 12.15625 -69.085938 11.457031 -68.515625 10.5 -67.890625 C 9.539062 -67.265625 8.859375 -66.675781 8.453125 -66.125 C 8.046875 -65.570312 7.988281 -64.851562 8.28125 -63.96875 C 7.988281 -64.113281 7.507812 -64.410156 6.84375 -64.859375 C 6.476562 -65.148438 6 -65.515625 5.40625 -65.953125 Z M 5.40625 -65.953125 "/></g></g></g><g fill="#ffffff" fill-opacity="1"><g transform="translate(155.503957, 90.120372)"><g><path d="M 18.671875 -84.40625 C 20.953125 -82.34375 22.585938 -80.941406 23.578125 -80.203125 C 24.578125 -79.472656 25.773438 -78.796875 27.171875 -78.171875 C 28.578125 -77.546875 30.015625 -77.234375 31.484375 -77.234375 C 31.929688 -77.234375 32.410156 -77.632812 32.921875 -78.4375 C 31.148438 -74.238281 29.3125 -71.882812 27.40625 -71.375 C 26 -71.082031 24.191406 -71.410156 21.984375 -72.359375 C 19.773438 -73.316406 17.9375 -74.460938 16.46875 -75.796875 L 16.46875 -58.21875 C 16.46875 -58.070312 16.46875 -57.925781 16.46875 -57.78125 C 16.46875 -57.414062 16.484375 -57.210938 16.515625 -57.171875 C 16.554688 -57.140625 16.757812 -57.125 17.125 -57.125 C 17.269531 -57.125 17.378906 -57.125 17.453125 -57.125 C 22.242188 -57.269531 25.15625 -57.710938 26.1875 -58.453125 C 26.769531 -58.890625 27.503906 -60.101562 28.390625 -62.09375 L 28.71875 -62.09375 C 28.875 -62.019531 28.953125 -61.945312 28.953125 -61.875 C 28.503906 -59.882812 27.707031 -57.726562 26.5625 -55.40625 C 25.425781 -53.082031 24.160156 -51.628906 22.765625 -51.046875 C 22.316406 -50.972656 20.65625 -50.9375 17.78125 -50.9375 C 16.90625 -50.9375 16.46875 -50.828125 16.46875 -50.609375 C 16.46875 -50.609375 16.46875 -50.203125 16.46875 -49.390625 L 16.46875 -1.65625 L 16.015625 29.9375 C 15.285156 20.582031 13.960938 12.628906 12.046875 6.078125 C 10.128906 -0.472656 9.171875 -4.742188 9.171875 -6.734375 C 9.171875 -9.097656 9.148438 -12.414062 9.109375 -16.6875 C 9.078125 -20.957031 9.0625 -24.125 9.0625 -26.1875 C 9.0625 -27.875 9.0625 -30.265625 9.0625 -33.359375 C 9.0625 -36.453125 9.0625 -39.285156 9.0625 -41.859375 C 9.0625 -44.441406 9.0625 -46.914062 9.0625 -49.28125 C 9.0625 -49.5 9.0625 -49.71875 9.0625 -49.9375 C 9.0625 -50.53125 8.953125 -50.828125 8.734375 -50.828125 C 8.578125 -50.898438 8.316406 -50.898438 7.953125 -50.828125 L 7.625 -50.828125 C 5.34375 -50.597656 3.722656 -50.191406 2.765625 -49.609375 C 2.242188 -49.160156 1.503906 -47.945312 0.546875 -45.96875 L 0.21875 -45.96875 C 0.0703125 -46.039062 0.0351562 -46.148438 0.109375 -46.296875 C 0.546875 -48.285156 1.335938 -50.421875 2.484375 -52.703125 C 3.628906 -54.984375 4.863281 -56.421875 6.1875 -57.015625 C 6.476562 -57.085938 7.066406 -57.125 7.953125 -57.125 C 8.617188 -57.632812 8.953125 -57.960938 8.953125 -58.109375 C 8.953125 -58.921875 8.929688 -60.335938 8.890625 -62.359375 C 8.859375 -64.390625 8.804688 -65.8125 8.734375 -66.625 C 8.734375 -67.945312 8.101562 -69.457031 6.84375 -71.15625 C 6.625 -71.445312 6.238281 -71.535156 5.6875 -71.421875 C 5.132812 -71.316406 4.675781 -71.117188 4.3125 -70.828125 L 3.984375 -71.15625 C 5.160156 -71.59375 6.039062 -72.070312 6.625 -72.59375 C 8.46875 -73.550781 10.160156 -74.707031 11.703125 -76.0625 C 13.253906 -77.425781 14.4375 -78.625 15.25 -79.65625 C 16.0625 -80.6875 17.203125 -82.269531 18.671875 -84.40625 Z M 18.671875 -84.40625 "/></g></g></g><g fill="#ffffff" fill-opacity="1"><g transform="translate(179.147081, 90.120372)"><g><path d="M 11.484375 -44.296875 L 11.484375 -19.78125 C 11.484375 -19.632812 11.425781 -18.269531 11.3125 -15.6875 C 11.207031 -13.113281 11.300781 -11.789062 11.59375 -11.71875 C 12.257812 -6.632812 14.25 -5.488281 17.5625 -8.28125 L 17.671875 -8.0625 C 16.941406 -6.59375 15.859375 -4.914062 14.421875 -3.03125 C 12.984375 -1.15625 11.894531 -0.21875 11.15625 -0.21875 C 10.269531 -0.21875 9.515625 -0.304688 8.890625 -0.484375 C 8.265625 -0.671875 7.726562 -1.0625 7.28125 -1.65625 C 6.84375 -2.25 6.53125 -2.691406 6.34375 -2.984375 C 6.164062 -3.273438 5.851562 -3.898438 5.40625 -4.859375 C 4.601562 -6.484375 4.203125 -9.648438 4.203125 -14.359375 C 4.203125 -15.691406 4.179688 -17.644531 4.140625 -20.21875 C 4.109375 -22.789062 4.09375 -24.78125 4.09375 -26.1875 C 3.9375 -35.019531 3.859375 -41.6875 3.859375 -46.1875 C 3.859375 -49.644531 3.34375 -51.410156 2.3125 -51.484375 C 1.875 -51.484375 1.320312 -51.226562 0.65625 -50.71875 C 0.8125 -52.1875 2.03125 -54.25 4.3125 -56.90625 C 4.53125 -57.34375 5.320312 -57.25 6.6875 -56.625 C 8.050781 -56 9.6875 -55.28125 11.59375 -54.46875 C 13.507812 -53.65625 15.097656 -53.359375 16.359375 -53.578125 C 16.578125 -53.578125 16.5 -53.320312 16.125 -52.8125 L 15.25 -52.265625 C 13.769531 -50.566406 12.789062 -49.253906 12.3125 -48.328125 C 11.832031 -47.410156 11.554688 -46.066406 11.484375 -44.296875 Z M 5.40625 -65.953125 C 4.300781 -67.359375 3.347656 -68.757812 2.546875 -70.15625 C 2.171875 -70.601562 2.332031 -71.101562 3.03125 -71.65625 C 3.738281 -72.207031 4.625 -73.035156 5.6875 -74.140625 C 6.757812 -75.242188 7.40625 -76.53125 7.625 -78 C 7.695312 -78.289062 7.878906 -78.179688 8.171875 -77.671875 L 8.390625 -76.453125 C 8.691406 -76.015625 9.265625 -75.28125 10.109375 -74.25 C 10.953125 -73.21875 11.578125 -72.332031 11.984375 -71.59375 C 12.390625 -70.851562 12.59375 -70.191406 12.59375 -69.609375 C 12.15625 -69.085938 11.457031 -68.515625 10.5 -67.890625 C 9.539062 -67.265625 8.859375 -66.675781 8.453125 -66.125 C 8.046875 -65.570312 7.988281 -64.851562 8.28125 -63.96875 C 7.988281 -64.113281 7.507812 -64.410156 6.84375 -64.859375 C 6.476562 -65.148438 6 -65.515625 5.40625 -65.953125 Z M 5.40625 -65.953125 "/></g></g></g><g fill="#ffffff" fill-opacity="1"><g transform="translate(194.946006, 90.120372)"><g><path d="M 30.5 -54.6875 C 30.644531 -55.050781 31.046875 -55.953125 31.703125 -57.390625 C 32.367188 -58.828125 32.773438 -59.804688 32.921875 -60.328125 C 32.921875 -60.179688 33.015625 -59.90625 33.203125 -59.5 C 33.390625 -59.09375 33.484375 -58.851562 33.484375 -58.78125 C 33.109375 -57.675781 32.40625 -56.054688 31.375 -53.921875 C 30.34375 -51.785156 29.3125 -49.703125 28.28125 -47.671875 C 27.25 -45.648438 26.234375 -43.40625 25.234375 -40.9375 C 24.242188 -38.46875 23.472656 -36.203125 22.921875 -34.140625 C 22.367188 -32.078125 22.128906 -30.050781 22.203125 -28.0625 C 22.273438 -26.070312 22.789062 -24.488281 23.75 -23.3125 C 22.570312 -23.75 21.28125 -24.757812 19.875 -26.34375 C 18.476562 -27.925781 17.929688 -29.234375 18.234375 -30.265625 C 18.085938 -33.140625 19.6875 -37.046875 23.03125 -41.984375 C 26.382812 -46.921875 28.394531 -50.269531 29.0625 -52.03125 C 27.363281 -49.09375 25.90625 -47.4375 24.6875 -47.0625 C 23.476562 -46.695312 21.253906 -47.140625 18.015625 -48.390625 C 16.242188 -49.492188 15.023438 -49.457031 14.359375 -48.28125 C 13.773438 -46.65625 13.367188 -45.441406 13.140625 -44.640625 L 11.828125 -39.65625 C 11.453125 -37.675781 11.242188 -34.125 11.203125 -29 C 11.171875 -23.882812 11.34375 -20.257812 11.71875 -18.125 C 12.15625 -15.25 13.238281 -12.832031 14.96875 -10.875 C 16.695312 -8.925781 18.609375 -7.726562 20.703125 -7.28125 C 22.804688 -6.84375 24.945312 -7.25 27.125 -8.5 C 29.300781 -9.757812 31.015625 -11.863281 32.265625 -14.8125 C 31.960938 -10.3125 30.429688 -6.53125 27.671875 -3.46875 C 24.910156 -0.414062 21.429688 0.484375 17.234375 -0.765625 C 13.179688 -1.140625 9.460938 -3.644531 6.078125 -8.28125 C 4.679688 -7.25 3.28125 -6.550781 1.875 -6.1875 L 1.4375 -6.734375 L 1.4375 -6.84375 C 3.28125 -7.289062 4.203125 -12.300781 4.203125 -21.875 L 4.203125 -26.1875 C 4.054688 -33.40625 3.867188 -40.878906 3.640625 -48.609375 C 3.492188 -51.335938 3.128906 -52.8125 2.546875 -53.03125 C 2.097656 -53.25 1.46875 -53.101562 0.65625 -52.59375 L 0.546875 -52.8125 C 0.472656 -52.882812 0.472656 -52.957031 0.546875 -53.03125 C 1.722656 -53.84375 2.9375 -54.488281 4.1875 -54.96875 C 5.445312 -55.445312 6.644531 -55.738281 7.78125 -55.84375 C 8.925781 -55.957031 9.828125 -55.703125 10.484375 -55.078125 C 11.148438 -54.453125 11.410156 -53.4375 11.265625 -52.03125 C 11.117188 -50.851562 11.117188 -48.128906 11.265625 -43.859375 C 11.335938 -43.046875 11.375 -42.640625 11.375 -42.640625 C 11.375 -42.640625 11.523438 -43.234375 11.828125 -44.421875 C 11.898438 -44.785156 12.082031 -45.554688 12.375 -46.734375 C 12.664062 -47.910156 12.882812 -48.738281 13.03125 -49.21875 C 13.1875 -49.695312 13.425781 -50.414062 13.75 -51.375 C 14.082031 -52.332031 14.414062 -53.066406 14.75 -53.578125 C 15.082031 -54.097656 15.503906 -54.6875 16.015625 -55.34375 C 16.535156 -56.007812 17.125 -56.566406 17.78125 -57.015625 C 19.625 -55.828125 21.945312 -54.9375 24.75 -54.34375 C 27.550781 -53.757812 29.46875 -53.875 30.5 -54.6875 Z M 30.5 -54.6875 "/></g></g></g><g fill="#ffffff" fill-opacity="1"><g transform="translate(226.98575, 90.120372)"><g><path d="M 11.484375 -44.296875 L 11.484375 -19.78125 C 11.484375 -19.632812 11.425781 -18.269531 11.3125 -15.6875 C 11.207031 -13.113281 11.300781 -11.789062 11.59375 -11.71875 C 12.257812 -6.632812 14.25 -5.488281 17.5625 -8.28125 L 17.671875 -8.0625 C 16.941406 -6.59375 15.859375 -4.914062 14.421875 -3.03125 C 12.984375 -1.15625 11.894531 -0.21875 11.15625 -0.21875 C 10.269531 -0.21875 9.515625 -0.304688 8.890625 -0.484375 C 8.265625 -0.671875 7.726562 -1.0625 7.28125 -1.65625 C 6.84375 -2.25 6.53125 -2.691406 6.34375 -2.984375 C 6.164062 -3.273438 5.851562 -3.898438 5.40625 -4.859375 C 4.601562 -6.484375 4.203125 -9.648438 4.203125 -14.359375 C 4.203125 -15.691406 4.179688 -17.644531 4.140625 -20.21875 C 4.109375 -22.789062 4.09375 -24.78125 4.09375 -26.1875 C 3.9375 -35.019531 3.859375 -41.6875 3.859375 -46.1875 C 3.859375 -49.644531 3.34375 -51.410156 2.3125 -51.484375 C 1.875 -51.484375 1.320312 -51.226562 0.65625 -50.71875 C 0.8125 -52.1875 2.03125 -54.25 4.3125 -56.90625 C 4.53125 -57.34375 5.320312 -57.25 6.6875 -56.625 C 8.050781 -56 9.6875 -55.28125 11.59375 -54.46875 C 13.507812 -53.65625 15.097656 -53.359375 16.359375 -53.578125 C 16.578125 -53.578125 16.5 -53.320312 16.125 -52.8125 L 15.25 -52.265625 C 13.769531 -50.566406 12.789062 -49.253906 12.3125 -48.328125 C 11.832031 -47.410156 11.554688 -46.066406 11.484375 -44.296875 Z M 5.40625 -65.953125 C 4.300781 -67.359375 3.347656 -68.757812 2.546875 -70.15625 C 2.171875 -70.601562 2.332031 -71.101562 3.03125 -71.65625 C 3.738281 -72.207031 4.625 -73.035156 5.6875 -74.140625 C 6.757812 -75.242188 7.40625 -76.53125 7.625 -78 C 7.695312 -78.289062 7.878906 -78.179688 8.171875 -77.671875 L 8.390625 -76.453125 C 8.691406 -76.015625 9.265625 -75.28125 10.109375 -74.25 C 10.953125 -73.21875 11.578125 -72.332031 11.984375 -71.59375 C 12.390625 -70.851562 12.59375 -70.191406 12.59375 -69.609375 C 12.15625 -69.085938 11.457031 -68.515625 10.5 -67.890625 C 9.539062 -67.265625 8.859375 -66.675781 8.453125 -66.125 C 8.046875 -65.570312 7.988281 -64.851562 8.28125 -63.96875 C 7.988281 -64.113281 7.507812 -64.410156 6.84375 -64.859375 C 6.476562 -65.148438 6 -65.515625 5.40625 -65.953125 Z M 5.40625 -65.953125 "/></g></g></g><g fill="#ffffff" fill-opacity="1"><g transform="translate(242.784674, 90.120372)"><g><path d="M 10.9375 -13.921875 C 11.300781 -11.117188 13.109375 -8.648438 16.359375 -6.515625 L 16.90625 -6.078125 C 18.445312 -5.265625 19.695312 -4.820312 20.65625 -4.75 C 21.175781 -4.820312 21.546875 -5.191406 21.765625 -5.859375 C 21.765625 -6.078125 21.800781 -6.257812 21.875 -6.40625 C 22.09375 -7.070312 22.21875 -7.9375 22.25 -9 C 22.289062 -10.070312 22.273438 -11.210938 22.203125 -12.421875 C 22.128906 -13.640625 22.09375 -14.285156 22.09375 -14.359375 C 22.238281 -18.117188 22.128906 -23.679688 21.765625 -31.046875 C 21.398438 -38.410156 21.21875 -43.820312 21.21875 -47.28125 C 21.21875 -47.726562 21.140625 -48.242188 20.984375 -48.828125 C 20.835938 -49.421875 20.742188 -49.828125 20.703125 -50.046875 C 20.671875 -50.265625 20.726562 -50.5625 20.875 -50.9375 C 21.394531 -51.519531 22.003906 -52.03125 22.703125 -52.46875 C 23.398438 -52.914062 24.410156 -53.507812 25.734375 -54.25 C 27.066406 -54.988281 28.210938 -55.648438 29.171875 -56.234375 C 29.390625 -56.304688 29.867188 -56.53125 30.609375 -56.90625 C 30.828125 -56.675781 30.898438 -56.523438 30.828125 -56.453125 C 30.234375 -56.015625 29.898438 -55.609375 29.828125 -55.234375 C 29.390625 -53.765625 29.242188 -51.816406 29.390625 -49.390625 C 29.609375 -33.035156 29.71875 -24.414062 29.71875 -23.53125 C 29.789062 -22.644531 29.789062 -21.0625 29.71875 -18.78125 C 29.644531 -16.5 29.609375 -15.023438 29.609375 -14.359375 C 29.609375 -12.960938 29.679688 -11.726562 29.828125 -10.65625 C 29.972656 -9.59375 30.265625 -8.65625 30.703125 -7.84375 C 31.148438 -7.03125 31.796875 -6.640625 32.640625 -6.671875 C 33.492188 -6.710938 34.546875 -7.25 35.796875 -8.28125 L 36.015625 -8.0625 C 35.203125 -6.519531 34.078125 -4.828125 32.640625 -2.984375 C 31.210938 -1.140625 30.128906 -0.21875 29.390625 -0.21875 C 27.035156 -0.21875 24.9375 -1.472656 23.09375 -3.984375 C 21.46875 -2.867188 19.40625 -1.835938 16.90625 -0.890625 L 16.46875 -0.65625 C 16.164062 -0.507812 15.722656 -0.363281 15.140625 -0.21875 C 15.066406 -0.0703125 14.363281 0.367188 13.03125 1.109375 C 12.957031 1.179688 12.882812 1.179688 12.8125 1.109375 L 12.703125 1 C 13.515625 0.1875 13.882812 -0.253906 13.8125 -0.328125 C 9.238281 -2.390625 6.179688 -5.039062 4.640625 -8.28125 C 4.117188 -7.769531 3.382812 -7.550781 2.4375 -7.625 C 2.351562 -7.625 2.238281 -7.804688 2.09375 -8.171875 C 2.539062 -8.390625 2.890625 -8.847656 3.140625 -9.546875 C 3.398438 -10.253906 3.492188 -10.789062 3.421875 -11.15625 C 3.640625 -14.03125 3.75 -19.039062 3.75 -26.1875 C 3.75 -33.476562 3.472656 -39.5 2.921875 -44.25 C 2.367188 -49 1.429688 -50.859375 0.109375 -49.828125 C 0.328125 -51.597656 1.539062 -53.660156 3.75 -56.015625 C 4.195312 -56.828125 5.46875 -56.679688 7.5625 -55.578125 C 9.664062 -54.472656 10.71875 -53.476562 10.71875 -52.59375 C 10.789062 -49.9375 10.828125 -43.507812 10.828125 -33.3125 C 10.828125 -23.113281 10.863281 -16.648438 10.9375 -13.921875 Z M 10.9375 -13.921875 "/></g></g></g><g fill="#ffffff" fill-opacity="1"><g transform="translate(278.028309, 90.120372)"><g><path d="M 10.9375 -44.296875 C 10.9375 -43.046875 10.972656 -42.054688 11.046875 -41.328125 C 11.191406 -42.054688 11.335938 -42.679688 11.484375 -43.203125 C 11.859375 -44.671875 12.742188 -47.429688 14.140625 -51.484375 C 15.535156 -55.535156 16.492188 -57.742188 17.015625 -58.109375 C 17.085938 -58.109375 17.160156 -58.109375 17.234375 -58.109375 C 17.304688 -58.109375 17.304688 -58.070312 17.234375 -58 C 17.160156 -57.488281 17.160156 -57.195312 17.234375 -57.125 L 19.4375 -56.34375 C 20.695312 -55.90625 22.15625 -55.5 23.8125 -55.125 C 25.46875 -54.757812 27.414062 -54.484375 29.65625 -54.296875 C 31.90625 -54.117188 33.546875 -54.394531 34.578125 -55.125 C 34.648438 -55.195312 34.6875 -55.160156 34.6875 -55.015625 C 34.832031 -54.359375 34.46875 -53.804688 33.59375 -53.359375 C 33.4375 -52.773438 33.25 -52.410156 33.03125 -52.265625 C 32.957031 -52.109375 32.789062 -51.863281 32.53125 -51.53125 C 32.28125 -51.207031 32.082031 -50.972656 31.9375 -50.828125 L 31.265625 -50.15625 C 31.265625 -50.082031 31.226562 -50.046875 31.15625 -50.046875 C 31.007812 -49.898438 31.007812 -46.804688 31.15625 -40.765625 L 31.375 -41.328125 C 31.59375 -42.429688 31.738281 -43.054688 31.8125 -43.203125 C 31.96875 -43.640625 32.171875 -44.242188 32.421875 -45.015625 C 32.679688 -45.796875 32.882812 -46.425781 33.03125 -46.90625 C 33.175781 -47.382812 33.378906 -47.972656 33.640625 -48.671875 C 33.898438 -49.367188 34.117188 -49.9375 34.296875 -50.375 C 34.484375 -50.820312 34.707031 -51.335938 34.96875 -51.921875 C 35.226562 -52.515625 35.445312 -52.992188 35.625 -53.359375 C 35.8125 -53.734375 36.035156 -54.101562 36.296875 -54.46875 C 36.554688 -54.832031 36.8125 -55.125 37.0625 -55.34375 C 37.320312 -55.570312 37.5625 -55.722656 37.78125 -55.796875 C 38.445312 -56.015625 39.8125 -55.867188 41.875 -55.359375 C 43.71875 -54.617188 45.796875 -54.175781 48.109375 -54.03125 C 50.429688 -53.882812 52.695312 -54.25 54.90625 -55.125 C 54.976562 -55.195312 55.015625 -55.160156 55.015625 -55.015625 C 55.160156 -54.359375 54.796875 -53.804688 53.921875 -53.359375 C 53.773438 -52.773438 53.585938 -52.410156 53.359375 -52.265625 C 53.210938 -52.109375 53.007812 -51.863281 52.75 -51.53125 C 52.5 -51.207031 52.335938 -50.972656 52.265625 -50.828125 L 51.59375 -50.15625 C 51.59375 -50.082031 51.554688 -50.046875 51.484375 -50.046875 C 51.335938 -49.234375 51.28125 -48.273438 51.3125 -47.171875 C 51.351562 -46.066406 51.410156 -44.171875 51.484375 -41.484375 C 51.554688 -38.796875 51.59375 -36.863281 51.59375 -35.6875 C 51.664062 -34.582031 51.679688 -33.164062 51.640625 -31.4375 C 51.609375 -29.707031 51.59375 -28.25 51.59375 -27.0625 L 51.59375 -19.78125 C 51.59375 -19.632812 51.535156 -18.269531 51.421875 -15.6875 C 51.316406 -13.113281 51.410156 -11.789062 51.703125 -11.71875 C 52.367188 -6.632812 54.359375 -5.488281 57.671875 -8.28125 L 57.890625 -8.0625 C 57.148438 -6.738281 55.96875 -5.097656 54.34375 -3.140625 C 52.726562 -1.191406 51.703125 -0.21875 51.265625 -0.21875 C 50.378906 -0.21875 49.625 -0.304688 49 -0.484375 C 48.375 -0.671875 47.835938 -1.0625 47.390625 -1.65625 C 46.953125 -2.25 46.640625 -2.691406 46.453125 -2.984375 C 46.273438 -3.273438 45.960938 -3.898438 45.515625 -4.859375 C 44.703125 -6.703125 44.296875 -9.867188 44.296875 -14.359375 C 44.296875 -17.828125 44.238281 -21.695312 44.125 -25.96875 C 44.019531 -30.238281 43.96875 -34.101562 43.96875 -37.5625 C 43.96875 -38.226562 43.910156 -38.816406 43.796875 -39.328125 C 43.691406 -39.847656 43.675781 -40.21875 43.75 -40.4375 C 43.820312 -40.65625 43.96875 -41.003906 44.1875 -41.484375 C 44.414062 -41.960938 44.929688 -42.898438 45.734375 -44.296875 C 45.960938 -44.742188 46.515625 -45.410156 47.390625 -46.296875 C 47.097656 -46.148438 46.660156 -46.078125 46.078125 -46.078125 L 45.734375 -46.078125 L 45.515625 -46.1875 C 45.441406 -46.1875 45.367188 -46.1875 45.296875 -46.1875 L 45.1875 -46.1875 C 44.59375 -46.332031 43.613281 -46.609375 42.25 -47.015625 C 40.894531 -47.421875 39.941406 -47.640625 39.390625 -47.671875 C 38.835938 -47.710938 37.898438 -47.660156 36.578125 -47.515625 L 35.578125 -47.171875 C 34.253906 -46.515625 32.925781 -43.347656 31.59375 -37.671875 C 31.445312 -36.941406 31.375 -36.460938 31.375 -36.234375 L 31.375 -30.9375 C 34.6875 -31.082031 36.820312 -31.488281 37.78125 -32.15625 C 38.300781 -32.519531 38.96875 -33.585938 39.78125 -35.359375 L 40 -35.359375 C 40.21875 -35.285156 40.328125 -35.210938 40.328125 -35.140625 C 39.878906 -33.296875 39.140625 -31.34375 38.109375 -29.28125 C 37.085938 -27.21875 35.945312 -25.925781 34.6875 -25.40625 C 33.957031 -25.257812 32.816406 -25.1875 31.265625 -25.1875 L 31.265625 -19.78125 C 31.265625 -19.632812 31.207031 -18.269531 31.09375 -15.6875 C 30.988281 -13.113281 31.082031 -11.789062 31.375 -11.71875 C 32.039062 -6.632812 34.03125 -5.488281 37.34375 -8.28125 L 37.5625 -8.0625 C 36.75 -6.59375 35.609375 -4.914062 34.140625 -3.03125 C 32.671875 -1.15625 31.601562 -0.21875 30.9375 -0.21875 C 30.050781 -0.21875 29.296875 -0.304688 28.671875 -0.484375 C 28.046875 -0.671875 27.507812 -1.0625 27.0625 -1.65625 C 26.625 -2.25 26.3125 -2.691406 26.125 -2.984375 C 25.945312 -3.273438 25.632812 -3.898438 25.1875 -4.859375 C 24.375 -6.703125 23.96875 -9.867188 23.96875 -14.359375 C 23.96875 -16.128906 23.945312 -18.191406 23.90625 -20.546875 C 23.875 -22.898438 23.859375 -24.484375 23.859375 -25.296875 C 22.535156 -25.296875 21.578125 -25.257812 20.984375 -25.1875 C 19.003906 -25.039062 17.535156 -24.671875 16.578125 -24.078125 C 16.054688 -23.640625 15.390625 -22.535156 14.578125 -20.765625 C 14.578125 -20.835938 14.503906 -20.875 14.359375 -20.875 L 14.140625 -21.109375 C 14.585938 -23.015625 15.328125 -24.976562 16.359375 -27 C 17.390625 -29.03125 18.53125 -30.304688 19.78125 -30.828125 C 20.070312 -30.828125 20.328125 -30.863281 20.546875 -30.9375 L 23.75 -30.9375 C 23.75 -31.519531 23.726562 -32.53125 23.6875 -33.96875 C 23.65625 -35.40625 23.640625 -36.601562 23.640625 -37.5625 C 23.640625 -38.226562 23.582031 -38.816406 23.46875 -39.328125 C 23.363281 -39.847656 23.347656 -40.21875 23.421875 -40.4375 C 23.492188 -40.65625 23.640625 -41.003906 23.859375 -41.484375 C 24.085938 -41.960938 24.601562 -42.898438 25.40625 -44.296875 C 25.632812 -44.742188 26.1875 -45.410156 27.0625 -46.296875 C 26.769531 -46.148438 26.332031 -46.078125 25.75 -46.078125 L 25.40625 -46.078125 L 25.1875 -46.1875 C 25.113281 -46.1875 25.039062 -46.1875 24.96875 -46.1875 L 24.859375 -46.1875 C 24.265625 -46.332031 23.285156 -46.609375 21.921875 -47.015625 C 20.566406 -47.421875 19.613281 -47.640625 19.0625 -47.671875 C 18.507812 -47.710938 17.566406 -47.660156 16.234375 -47.515625 L 15.25 -47.171875 C 13.925781 -46.515625 12.597656 -43.347656 11.265625 -37.671875 C 11.117188 -36.941406 11.046875 -36.460938 11.046875 -36.234375 L 11.046875 -34.46875 C 11.046875 -34.394531 11.007812 -34.320312 10.9375 -34.25 L 10.9375 -19.78125 C 10.9375 -19.632812 10.878906 -18.269531 10.765625 -15.6875 C 10.660156 -13.113281 10.753906 -11.789062 11.046875 -11.71875 C 11.859375 -6.632812 13.847656 -5.488281 17.015625 -8.28125 L 17.234375 -8.0625 C 16.648438 -6.8125 15.523438 -5.191406 13.859375 -3.203125 C 12.203125 -1.210938 11.117188 -0.21875 10.609375 -0.21875 C 9.722656 -0.21875 8.96875 -0.304688 8.34375 -0.484375 C 7.71875 -0.671875 7.179688 -1.0625 6.734375 -1.65625 C 6.296875 -2.25 5.984375 -2.691406 5.796875 -2.984375 C 5.617188 -3.273438 5.304688 -3.898438 4.859375 -4.859375 C 4.046875 -6.703125 3.640625 -9.867188 3.640625 -14.359375 C 3.640625 -19.515625 3.601562 -23.457031 3.53125 -26.1875 C 3.53125 -28.394531 3.507812 -31.742188 3.46875 -36.234375 C 3.4375 -40.734375 3.421875 -44.050781 3.421875 -46.1875 C 3.421875 -46.257812 3.421875 -46.367188 3.421875 -46.515625 C 3.421875 -47.023438 3.421875 -47.425781 3.421875 -47.71875 C 3.421875 -48.019531 3.382812 -48.460938 3.3125 -49.046875 C 3.238281 -49.640625 3.128906 -50.082031 2.984375 -50.375 C 2.835938 -50.675781 2.648438 -50.953125 2.421875 -51.203125 C 2.203125 -51.460938 1.890625 -51.535156 1.484375 -51.421875 C 1.085938 -51.316406 0.628906 -51.082031 0.109375 -50.71875 C 0.328125 -52.332031 1.539062 -54.394531 3.75 -56.90625 C 4.195312 -57.632812 5.429688 -57.5 7.453125 -56.5 C 9.484375 -55.507812 10.570312 -54.535156 10.71875 -53.578125 C 10.863281 -53.140625 10.9375 -50.046875 10.9375 -44.296875 Z M 10.9375 -44.296875 "/></g></g></g></g></g></svg>