<svg xmlns="http://www.w3.org/2000/svg" xmlns:xlink="http://www.w3.org/1999/xlink" width="500" zoomAndPan="magnify" viewBox="0 0 375 374.999991" height="500" preserveAspectRatio="xMidYMid meet" version="1.0"><defs><clipPath id="c7041a9a96"><path d="M 100.953125 37.5 L 285.738281 37.5 L 285.738281 337.777344 L 100.953125 337.777344 Z M 100.953125 37.5 " clip-rule="nonzero"/></clipPath><clipPath id="7cedbd12f7"><path d="M 118.203125 37.5 L 268.488281 37.5 C 273.0625 37.5 277.449219 39.316406 280.6875 42.550781 C 283.921875 45.789062 285.738281 50.175781 285.738281 54.75 L 285.738281 320.25 C 285.738281 324.824219 283.921875 329.210938 280.6875 332.449219 C 277.449219 335.683594 273.0625 337.5 268.488281 337.5 L 118.203125 337.5 C 113.628906 337.5 109.242188 335.683594 106.003906 332.449219 C 102.769531 329.210938 100.953125 324.824219 100.953125 320.25 L 100.953125 54.75 C 100.953125 50.175781 102.769531 45.789062 106.003906 42.550781 C 109.242188 39.316406 113.628906 37.5 118.203125 37.5 Z M 118.203125 37.5 " clip-rule="nonzero"/></clipPath><clipPath id="694a57f907"><path d="M 0.953125 0.5 L 185.738281 0.5 L 185.738281 300.679688 L 0.953125 300.679688 Z M 0.953125 0.5 " clip-rule="nonzero"/></clipPath><clipPath id="b46a930214"><path d="M 18.203125 0.5 L 168.488281 0.5 C 173.0625 0.5 177.449219 2.316406 180.6875 5.550781 C 183.921875 8.789062 185.738281 13.175781 185.738281 17.75 L 185.738281 283.25 C 185.738281 287.824219 183.921875 292.210938 180.6875 295.449219 C 177.449219 298.683594 173.0625 300.5 168.488281 300.5 L 18.203125 300.5 C 13.628906 300.5 9.242188 298.683594 6.003906 295.449219 C 2.769531 292.210938 0.953125 287.824219 0.953125 283.25 L 0.953125 17.75 C 0.953125 13.175781 2.769531 8.789062 6.003906 5.550781 C 9.242188 2.316406 13.628906 0.5 18.203125 0.5 Z M 18.203125 0.5 " clip-rule="nonzero"/></clipPath><clipPath id="5d2f1f758d"><rect x="0" width="186" y="0" height="301"/></clipPath></defs><g clip-path="url(#c7041a9a96)"><g clip-path="url(#7cedbd12f7)"><g transform="matrix(1, 0, 0, 1, 100, 37)"><g clip-path="url(#5d2f1f758d)"><g clip-path="url(#694a57f907)"><g clip-path="url(#b46a930214)"><path fill="#a6a6a6" d="M 0.953125 0.5 L 185.738281 0.5 L 185.738281 300.777344 L 0.953125 300.777344 Z M 0.953125 0.5 " fill-opacity="1" fill-rule="nonzero"/></g></g></g></g></g></g></svg>